<svg width="512" height="512" viewBox="0 0 512 512" fill="none" xmlns="http://www.w3.org/2000/svg">
<rect width="512" height="512" rx="65" fill="url(#paint0_linear)"/>
<path d="M421.425 94.6771C420.259 91.8469 417.489 90 414.432 90C120.711 90 89 211.727 89 264.068C89 282.898 93.1776 300.486 101.427 316.333C102.699 318.786 105.211 320.344 107.966 320.405C110.569 320.329 113.309 319.028 114.687 316.622C134.516 282.353 190.671 197.771 283.412 152.831C287.211 151.015 291.752 152.574 293.553 156.313C295.37 160.082 293.795 164.623 290.042 166.439C283.049 169.83 276.328 173.523 269.744 177.352C267.231 178.82 264.794 180.38 262.327 181.908C258.619 184.209 254.956 186.554 251.384 188.977C247.827 191.369 244.315 193.821 240.864 196.333C239.789 197.12 238.76 197.922 237.7 198.725C145.398 267.504 89 377.227 89 415.432C89 419.609 92.3908 423 96.5684 423C100.746 423 104.137 419.609 104.137 415.432C104.137 403.231 112.447 378.499 128.173 348.998C150.999 367.661 181.71 377.591 217.66 377.591C314.85 377.591 335.209 285.108 346.137 235.415C360.849 168.543 393.226 129.476 419.776 102.912C421.955 100.747 422.591 97.5074 421.425 94.6771Z" fill="white"/>
<defs>
<linearGradient id="paint0_linear" x1="0" y1="0" x2="512" y2="512" gradientUnits="userSpaceOnUse">
<stop stop-color="#3DC2AD"/>
<stop offset="1" stop-color="#42E298"/>
</linearGradient>
</defs>
</svg>
